<?xml version="1.0" encoding="utf-8"?>
<!-- Generator: Adobe Illustrator 16.0.4, SVG Export Plug-In . SVG Version: 6.00 Build 0)  -->
<!DOCTYPE svg PUBLIC "-//W3C//DTD SVG 1.1//EN" "http://www.w3.org/Graphics/SVG/1.1/DTD/svg11.dtd">
<svg version="1.1" id="Layer_1" xmlns="http://www.w3.org/2000/svg" xmlns:xlink="http://www.w3.org/1999/xlink" x="0px" y="0px"
	 width="300px" height="300px" viewBox="0 0 300 300" enable-background="new 0 0 300 300" xml:space="preserve">
<g>
	<path fill="#FFFFFF" d="M150.001,300C67.29,300,0,232.711,0,150C0,67.29,67.29,0,150.001,0s150,67.29,150,150
		C300.001,232.711,232.712,300,150.001,300z M150.001,9.677C72.626,9.677,9.678,72.626,9.678,150s62.948,140.322,140.323,140.322
		c77.373,0,140.322-62.948,140.322-140.322S227.374,9.677,150.001,9.677z"/>
</g>
<rect x="147.234" y="14.635" fill="#FFFFFF" width="5.532" height="35.031"/>
<rect x="147.234" y="248.969" fill="#FFFFFF" width="5.532" height="35.031"/>
<rect x="249.65" y="146.552" fill="#FFFFFF" width="35.031" height="5.531"/>
<rect x="15.318" y="146.552" fill="#FFFFFF" width="35.031" height="5.531"/>
<rect x="145" y="14.635" fill="#FFFFFF" width="10" height="35.031"/>
<rect x="145" y="248.969" fill="#FFFFFF" width="10" height="35.031"/>
<rect x="249.65" y="144.317" fill="#FFFFFF" width="35.031" height="10"/>
<rect x="15.318" y="144.317" fill="#FFFFFF" width="35.031" height="10"/>
<rect x="88.653" y="30.338" transform="matrix(-0.8661 0.4999 -0.4999 -0.8661 194.517 43.5991)" fill="#FFFFFF" width="5.532" height="35.031"/>
<rect x="205.817" y="233.287" transform="matrix(-0.8661 0.4999 -0.4999 -0.8661 514.6145 363.7361)" fill="#FFFFFF" width="5.532" height="35.032"/>
<rect x="248.703" y="73.213" transform="matrix(-0.5 -0.866 0.866 -0.5 298.6337 353.8689)" fill="#FFFFFF" width="5.531" height="35.03"/>
<rect x="45.769" y="190.382" transform="matrix(-0.4999 -0.8661 0.8661 -0.4999 -107.2528 353.8663)" fill="#FFFFFF" width="5.532" height="35.03"/>
<rect x="45.763" y="73.223" transform="matrix(-0.5 0.866 -0.866 -0.5 151.375 94.0772)" fill="#FFFFFF" width="5.532" height="35.03"/>
<rect x="248.715" y="190.38" transform="matrix(-0.5004 0.8658 -0.8658 -0.5004 557.3181 94.1991)" fill="#FFFFFF" width="5.533" height="35.031"/>
<rect x="205.827" y="30.327" transform="matrix(-0.8661 -0.4999 0.4999 -0.8661 365.3289 193.5603)" fill="#FFFFFF" width="5.532" height="35.031"/>
<rect x="88.648" y="233.274" transform="matrix(-0.8661 -0.4998 0.4998 -0.8661 45.2321 513.6956)" fill="#FFFFFF" width="5.531" height="35.032"/>
</svg>
